<svg xmlns="http://www.w3.org/2000/svg" viewBox="0 0 1480.6575 347.18388"><path d="M458.013 114.488c5.986 1.636 9.727 5.323 9.933 11.716-.526 46.647 1.117 93.553-.586 140.09-3.627 13.611-29.57 6.343-40.84 8.06-6.568.099-11.977-6.108-11.129-12.598.297-44.756.27-89.567.012-134.323-.856-20.373 29.805-10.9 42.61-12.945ZM709.971 114.488c5.828 1.483 9.943 5.386 10.04 11.63-.45 46.542.892 93.264-.47 139.723-1.488 5.65-6.484 8.528-10.836 8.52-11.261-1.696-37.613 5.51-40.892-8.24-.85-46.218.233-92.687-.356-138.977-.478-20.05 29.765-10.592 42.514-12.656ZM244.356 233.078c2.995-7.9 12.553-8.237 19.384-11.712 14.54-5.99 22.721-20.884 30.283-33.87 7.07-16.949 2.987-36.27 4.056-54.188-.198-5.726 3.76-10.827 9.496-11.711 10.549-1.078 21.263-.15 31.867-.443 7.14-.594 13.065 5.777 12.273 12.832 1.253 26.95-.11 54.459-17.722 76.502-16.318 20.136-43.244 29.24-68.44 31.026-7.782.378-18.28 2.895-21.197-6.56v-1.876ZM1180.092 330.652c-7.208-1.785-10.759-6.306-10.689-13.723-.02-9.754-.032-19.51.011-29.264-.046-2.111-1.007-4.93-3.414-5.093-11.252-.133-22.54.158-33.778-.108-5.372-1.052-6.35-7.341-8.708-11.432-2.97-5.55-.216-11.897 7.097-11.183 26.273-.1 52.558.195 78.827-.115 4.075-.312 7.104 3.165 7.098 6.635-.131 17.131-.027 34.266-.041 51.398-.48 18.858-24.042 11.53-36.403 12.885ZM1080.586 330.652c-6.152-1.063-11.05-6.352-10.69-13.735-1.164-5.835 3.152-35.031-3.564-34.359-9.325-.012-18.649-.002-27.972-.005-5.547-1.232-8.652-7.69-13.278-10.838-5.194-4.455-.868-13.122 5.82-11.866 26.34-.1 52.692.198 79.027-.117 4.076-.305 7.106 3.166 7.1 6.637-.13 17.133-.024 34.27-.042 51.406-.453 18.863-24.046 11.515-36.401 12.877ZM1081.384 140.95c1.912.252 81.584.238 83.257.006 2.243-7.93-4.774-24.054 7.057-25.686 11.894 1.766 23.774 4.224 35.548 6.693 4.555 1.417 7.49 5.267 7.664 10.03.016 20.386.014 40.774 0 61.161-.049 4.642-3.014 8.212-7.57 9.194-22.42 1.868-47.082-1.803-68.551 1.312 1.117 5.445 2.204 14.402 8.907 15.366 26.306.626 52.68.026 79.01.234 9.862-.714 7.453 11.061 7.63 17.5.288 4.722-2.984 8.07-7.783 7.574-71.583-.017-143.168.038-214.75-.018-8.882-1.004-5.516-12.076-6.123-18.24-.06-4.738 3.958-7.33 8.393-6.82 26.656 0 53.312-.004 79.968.007 5.221.007 7.81-1.279 9.493-6.36.273-2.532 4.555-8.86 1.398-10.196-22.114-.433-44.357.7-66.413-.424-4.05-.911-7.004-4.425-7.142-8.566-.052-23.387 0-46.778-.017-70.166-.566-5.154 3.52-9.24 8.717-8.142 11.32 2.303 22.801 3.99 34.03 6.68 8.392 2.63 7.182 11.862 7.277 18.862Zm41.068 24.951c-11.577 0-23.154-.005-34.731.01-2.981-.09-6.406.61-6.412 4.25-.5 7.116 1.746 7.577 8.193 7.735 22.529.024 45.058.021 67.586.004 3.191.099 7.6-.447 7.782-4.46.546-6.296-1.77-7.536-7.686-7.525-11.577-.023-23.155-.014-34.732-.014ZM1360.046 130.91c12.133.101 24.288-.208 36.41.125 5.825.673 8.63 7.324 4.456 10.953-2.532 1.844-5.117 3.584-7.178 5.983-1.363 1.348-1.243 3.023-.842 4.717.059 2.334.076 1.846 1.75 3.975 18.824 21.974 14.05 51.751 14.538 78.478.647 35.553-30.312 67.279-65.846 67.415-41.034 5.648-81.965-24.617-81.28-67.608-.021-12.13-.087-24.263.01-36.394-.39-31.068 22.492-59.553 52.87-66.022 14.809-3.024 30.099-1.108 45.112-1.623Zm.623 83.686c6.684-73.654-46.25-88.574-50.309-18.836 1.507 26.198-5.82 56.607 11.596 78.862 5.755 7.032 15.072 9.7 22.766 3.977 18.732-15.36 15.71-42.27 15.947-64.003ZM829.072 133.228c2.414-1.217.59-6.147 7.277-7.072 18.192-.24 36.423-.213 54.617-.01 6.497.284 5.635 9.103 5.4 14.002-.092 3.931-3.746 5.974-7.367 5.789-4.728.893-11.836-2.008-15.292 1.674-3.114 19.251-.212 39.654-1.205 59.272-.33 13.525 18.16 5.568 26.741 8.608 6.84 2.042 3.767 11.174 4.38 16.543-.018 3.432-2.75 6.007-5.93 6.01-42.038.407-84.09.05-126.134.154-5.606.45-11.632-2.552-11.616-9.263.472-32.604-.593-65.356.395-97.891 1.04-3.04 3.566-4.914 6.8-4.916 18.46-.01 36.919.003 55.378-.015 4.19-.13 6.709 3.08 6.556 7.115Zm-24.665 46.369v29.08c-.578 3.672 2.04 6.27 5.679 6.12 5.681-.955 17.726 3.453 17.618-5.509-.033-20.012.012-40.026-.027-60.036-.172-2.63-2.287-3.434-4.357-3.301-27.285-.657-17.021-1.843-18.913 33.646ZM1480.614 219.922c-.092 32.268.182 64.546-.11 96.81-.291 3.847-4.09 6.697-7.822 6.654-11.138.026-22.277.02-33.415.006-5.45.01-8.783-4.615-8.376-9.832.22-63.583-.438-127.241.235-190.79.866-3.607 4.068-6.109 7.8-6.115 11.325-.017 22.652-.039 33.978.015 3.691-.056 6.976 2.585 7.555 6.258.42 32.32.02 64.665.155 96.994ZM601.263 147.089c3.223 43.325-19.697 79.21-62.47 90.207-8.428 1.633-42.519 9.872-44.237-1.554-2.186-11.05 12.941-11.361 19.838-15.367 14.043-6.339 21.988-20.989 29.362-33.805 5.56-12.235 3.295-26.263 3.814-39.331-9.848-1.74-24.7 2.446-33.125-2.027-5.484-5.077-17.264-15.124-5.642-20.355 41.885-1.313 84.105-.094 126.02.038 6.778 2.196 4.172 10.896 4.497 16.32-.427 3.894-3.866 6.164-7.636 5.798-10.177.054-20.23-.113-30.42.076ZM380.225 329.456c-28.896-.536-58.072 1.056-86.837-.586-5.421-1.787-8.163-6.704-7.908-12.267-.009-12.38 0-24.762-.01-37.144-.002-2.39.229-1.886-1.389-3.645-3.593-3.829-7.024-7.817-10.77-11.499-4.723-4.162-1.836-12.276 4.498-12.4 64.977 2.668 62.103-15.469 61.196 46.651.055 4.273 1.667 6.598 6.16 6.192 39.728.02 79.462-.038 119.19.021 2.906.135 4.796 2.767 4.514 5.585-1.094 6.164 3.664 18.624-5.679 19.14-27.656-.073-55.31-.04-82.965-.04v-.008ZM632.253 329.458c-28.794-.435-57.78.854-86.484-.47-6.661-2.223-8.5-7.566-8.187-12.41v-36.395c0-1.388.218-2.784-.926-3.836-3.982-6.114-15.494-11.708-13.203-19.743.524-9.191 46.137-3.108 55.582-4.764 7.68-.392 12.63 5 12.083 12.582.01 11.443.01 22.886.002 34.33-.02 4.01 1.57 6.408 6.106 6.006 39.73.021 79.463-.04 119.19.022 3.624.138 4.897 3.755 4.48 6.913-.968 5.573 3.196 16.361-4.551 17.75-28.029.061-56.063 0-84.092.02v-.005ZM879.812 254.22c28.59-.048 57.182.093 85.77-.056 4-.119 7.677 3.107 7.655 7.532-.065 13.317-.058 26.635-.075 39.953 3.247 35.803-12.926 26.822-39.678 27.966-22.931-1.975-8.315-35.394-14.2-49.555-36.76-4.462-76.85-.09-114.682-1.577-6.185.686-9.441-6.151-13.966-9.324-8.689-4.888-5.438-16.225 4.718-14.93 28.152-.013 56.305-.01 84.458-.01ZM971.66 178.112c-3.13 66.446 15.087 63.364-38.73 62.462-3.841-.007-7.134-2.804-7.785-6.572-.523-37.434-.598-75.067.024-112.489.87-3.57 4.117-6.13 7.802-6.14 53.854-.995 35.53-3.525 38.688 62.739ZM394.957 229.536c.311 6.383-6.776 12.27-13.969 9.191-10.506-4.03-21.01-8.065-31.517-12.094-8.198-1.805-12.098-10.233-6.568-17.057 8.046-7.654 15.899-27.62 29.398-18.3 8.384 9.66 13.684 21.979 20.917 32.592 1.103 1.801 1.828 3.692 1.739 5.668Z" style="fill:#3c3c37"/><path d="M631.322 242.531c-11.585-3.058-22.888-8.69-34.287-12.636-5.151-1.584-9.023-3.81-9.68-9.598.3-9.842 11.048-16.026 15.858-24.043 5.022-6.481 14.944-5.513 19.044 1.42a9551.836 9551.836 0 0 0 17.891 29.266c4.337 6.634.138 15.718-8.826 15.591ZM622 180.685c1.953-9.64 15.738-19.28 21.883-27.53 2.38-2.498 7.405-2.258 9.16 1.93 3.05 9.772 5.482 19.743 8.473 29.536 1.857 6.414-3.706 12.47-10.152 11.38-8.65-3.841-28.95-3.609-29.364-15.316ZM920.37 189.434c-2.493 17.359-23.05 3.9-33.304 2.2-18.386-8.896 7.334-24.899 13.482-33.815 9.758-8.112 13.286 4.543 14.78 12.233 1.616 6.472 3.88 12.817 5.042 19.382Z" style="fill:#3c3c37"/><path d="M0 144.787c1.202-24.159 19.05-47.462 44.282-48.914 28.357-.126 56.714-.325 85.072-.501 28.144-.902 52.231-2.045 67.19 26.603 7.21 13.866 5.623 30.225-.218 44.265-4.034 12.431-8.053 24.867-12.076 37.302-12.266 37.87-24.475 75.756-36.784 113.61l-.71.223c-13.438 32.336-59.7 40.388-82.948 14.093-5.869-6.22-9.896-13.49-12.096-21.77-6.992-23.155-15.213-45.963-22.65-68.99-8.851-25.965-16.808-52.267-26.396-77.953C.993 158.152.96 153.198 0 148.506v-3.719Zm88.827 154.08c3.357 11.875 15.576 14.99 22.275 5.343 5.412-10.554 7.593-22.69 11.752-33.829 8.772-24.54 15.859-49.827 24.677-74.35 4.528-12.28 8.096-24.988 12.308-37.41 3.59-8.787 6.075-19.271-4.177-24.578-3.909-.637-102.47-1.362-108.577-.125-8.234 2.292-11.717 11.08-7.507 18.63M119.142 70.823c-12.694-1.53-24.92-6.052-37.428-8.756-11.57-2.688-16.138-15.871-6.614-23.977 9.86-11.395 20.023-22.562 29.749-34.058 2.857-5.3 10.676-5.122 14.47-.943 2.346 2.213 2.048 5.647 2.958 8.519 3.014 13.01 6.074 26.01 9.117 39.015 3.858 9.653-1.799 19.967-12.252 20.2Z" style="fill:#008250"/></svg>