<svg width="130" height="112" viewBox="0 0 130 112" fill="none" xmlns="http://www.w3.org/2000/svg">
<path fill-rule="evenodd" clip-rule="evenodd" d="M39.9595 82.4169C42.6013 86.5656 46.0661 88.6307 50.3541 88.6124C53.8741 88.5973 56.3019 87.6269 57.6377 85.7011C59.0374 83.7751 59.7313 81.4041 59.7192 78.5881C59.715 77.6039 59.6544 76.7144 59.5375 75.9199C59.5202 75.9069 59.5031 75.894 59.4861 75.8811C58.3884 71.266 57.128 61.871 58.5053 56.9914C58.4177 56.2423 58.3723 55.5071 58.3692 54.7857C58.3566 51.8417 58.9863 49.439 60.2583 47.5776C61.5304 45.7161 63.4784 44.7797 66.1024 44.7685C68.7903 44.757 70.7784 45.7085 72.0666 47.6229C73.3497 49.4664 74.0001 51.8843 74.0177 54.8765C75.1221 60.0119 76.3188 70.2235 73.4619 75.5424C73.3192 76.4166 73.2503 77.4125 73.2551 78.5301C73.2669 81.2821 73.9489 83.6152 75.3011 85.5294C76.7173 87.4434 79.1854 88.3928 82.7054 88.3777C87.0573 88.3591 90.5045 86.2963 93.047 82.1894C95.5894 78.0824 97.069 72.38 97.4857 65.0822C97.5453 64.0579 97.5709 62.5538 97.5624 60.5698C97.5289 52.7619 96.2194 45.8874 93.6339 39.9465C91.1125 34.0052 87.4767 29.4127 82.7268 26.1691C78.0406 22.8611 72.5615 21.2206 66.2896 21.2475C60.0176 21.2743 54.5208 22.9619 49.7991 26.3102C45.1411 29.5942 41.545 34.2496 39.0109 40.2765C36.4764 46.2395 35.2257 53.0929 35.2589 60.8368C35.2674 62.8208 35.3059 64.3246 35.3743 65.3484C35.853 72.5144 37.3814 78.2039 39.9595 82.4169Z" fill="white"/>
<circle cx="64.7373" cy="55.7544" r="52" transform="rotate(-0.245536 64.7373 55.7544)" stroke="white" stroke-width="7"/>
<path d="M124.17 39.9996L5.30863 72.5093" stroke="white" stroke-width="10" stroke-linecap="round"/>
</svg>
